<svg fill="none" xmlns="http://www.w3.org/2000/svg" viewBox="0 0 719 247"><path d="M309 133a4 4 0 0 1 4-4h132a4 4 0 0 1 4 4v112H313a4 4 0 0 1-4-4V133Z" fill="#fff"/><rect x="129" y="4" width="192" height="241" rx="4" fill="#1C1A1A"/><mask id="a" style="mask-type:alpha" maskUnits="userSpaceOnUse" x="129" y="4" width="192" height="241"><path d="M129 8a4 4 0 0 1 4-4h184a4 4 0 0 1 4 4v237H133a4 4 0 0 1-4-4V8Z" fill="#0A0101"/></mask><g opacity=".4" stroke="#fff" mask="url(#a)"><path d="M161-36.5v302M193-36.5v302M225-36.5v302M289-36.5v302M257-36.5v302"/></g><circle cx="644" cy="173" r="72" fill="#D1570E"/><path d="M10.312 61.906a1.974 1.974 0 0 1 2.417-1.395l270.51 72.483a1.974 1.974 0 0 1 1.396 2.417l-1.56 5.821c-20.298 75.752-98.161 120.707-173.914 100.409C33.409 221.343-11.546 143.48 8.752 67.727l1.56-5.82Z" fill="#464A31"/></svg>