<svg fill="none" xmlns="http://www.w3.org/2000/svg" viewBox="0 0 156 31"><path d="M0 25.385h3.167V17.59h6.498v-2.846H3.167V10.05h8.257V7.18H0v18.206ZM12.372 25.385h2.978v-6.257c0-2.564 1.543-3.923 3.248-3.923.542 0 .975.077 1.49.23V12.54a6.134 6.134 0 0 0-1.165-.103c-1.543 0-3.059.949-3.573 2.41v-2.282h-2.978v12.82ZM20.42 18.974c0 3.667 2.815 6.667 6.524 6.667 1.95 0 3.573-.949 4.332-1.974v1.718h2.977v-12.82h-2.977v1.717c-.759-1.026-2.383-1.974-4.332-1.974-3.709 0-6.524 3-6.524 6.666Zm11.1 0c0 2.308-1.625 4.103-4.035 4.103-2.409 0-4.033-1.795-4.033-4.103 0-2.307 1.624-4.102 4.033-4.102 2.41 0 4.034 1.795 4.034 4.102ZM41.157 7.872c0-1.026-.866-1.872-1.976-1.872-1.083 0-2.003.846-2.003 1.872 0 1.051.92 1.897 2.003 1.897 1.11 0 1.976-.846 1.976-1.897Zm-.487 4.692h-2.978v13.77c0 1.59-.785 2.179-2.111 2.179-.271 0-.542-.026-.731-.052v2.462c.352.051.812.077 1.272.077 2.49 0 4.548-1.385 4.548-4.256v-14.18ZM42.88 18.974c0 3.667 2.815 6.667 6.524 6.667 1.95 0 3.573-.949 4.332-1.974v1.718h2.977V6.154h-2.977v8.128c-.758-1.026-2.383-1.974-4.332-1.974-3.709 0-6.524 3-6.524 6.666Zm11.1 0c0 2.308-1.625 4.103-4.034 4.103-2.41 0-4.034-1.795-4.034-4.103 0-2.307 1.624-4.102 4.034-4.102 2.409 0 4.033 1.795 4.033 4.102ZM58.961 18.974c0 3.667 2.816 6.667 6.524 6.667 1.95 0 3.574-.949 4.332-1.974v1.718h2.978v-12.82h-2.978v1.717c-.758-1.026-2.382-1.974-4.332-1.974-3.709 0-6.524 3-6.524 6.666Zm11.1 0c0 2.308-1.625 4.103-4.034 4.103-2.41 0-4.034-1.795-4.034-4.103 0-2.307 1.624-4.102 4.034-4.102 2.41 0 4.034 1.795 4.034 4.102ZM80.44 22.41c1.163 1.949 3.735 3.282 6.848 3.282 3.763 0 6.416-2.077 6.416-5.256.027-2.718-1.678-4.333-4.52-5.333l-1.95-.693c-1.976-.692-2.924-1.282-2.924-2.615 0-1.308 1.408-2.103 3.032-2.103 1.49 0 2.68.616 3.655 1.693l2.193-2.026c-1.408-1.59-3.438-2.487-5.82-2.487-3.574 0-6.254 1.949-6.254 5.128 0 2.487 1.489 4.077 4.548 5.128l2.112.718c1.84.641 2.734 1.487 2.734 2.77 0 1.358-1.327 2.256-3.113 2.256-1.868 0-3.466-.872-4.467-2.334l-2.49 1.872ZM103.558 25.23v-2.512a5.057 5.057 0 0 1-1.598.256c-1.543 0-2.274-.59-2.274-2.18v-5.717h3.872v-2.513h-3.872V9h-2.978v3.564h-2.815v2.513h2.815v6.18c0 2.897 2.03 4.256 4.63 4.256.92 0 1.624-.103 2.22-.282ZM105.38 20.23c0 3.283 1.922 5.411 5.035 5.411 1.733 0 3.168-.718 3.953-2v1.744h2.978v-12.82h-2.978v6.307c0 2.743-1.381 4.205-3.303 4.205-1.732 0-2.707-1.257-2.707-3.308v-7.205h-2.978v7.667ZM119.566 18.974c0 3.667 2.815 6.667 6.524 6.667 1.949 0 3.574-.949 4.332-1.974v1.718h2.978V6.154h-2.978v8.128c-.758-1.026-2.383-1.974-4.332-1.974-3.709 0-6.524 3-6.524 6.666Zm11.099 0c0 2.308-1.624 4.103-4.033 4.103-2.41 0-4.034-1.795-4.034-4.103 0-2.307 1.624-4.102 4.034-4.102 2.409 0 4.033 1.795 4.033 4.102ZM140.087 7.872c0-1.026-.866-1.872-1.976-1.872-1.083 0-2.004.846-2.004 1.872 0 1.051.921 1.897 2.004 1.897 1.11 0 1.976-.846 1.976-1.897Zm-3.465 17.513h2.978v-12.82h-2.978v12.82ZM156 18.974c0-3.718-3.086-6.666-7.093-6.666-4.006 0-7.093 2.948-7.093 6.666 0 3.718 3.087 6.667 7.093 6.667 4.007 0 7.093-2.949 7.093-6.667Zm-11.181 0c0-2.282 1.679-4.05 4.088-4.05 2.382 0 4.061 1.768 4.061 4.05s-1.679 4.052-4.061 4.052c-2.409 0-4.088-1.77-4.088-4.052Z" fill="#0A0101"/></svg>