<svg fill="none" xmlns="http://www.w3.org/2000/svg" viewBox="0 0 185 41"><path d="M.72 28.188h3.725v-9.695h7.64v-3.54h-7.64V9.119h9.71V5.546H.72v22.642ZM15.27 28.188h3.502v-7.781c0-3.19 1.814-4.88 3.82-4.88.637 0 1.146.096 1.751.288V12.21a6.84 6.84 0 0 0-1.369-.127c-1.815 0-3.598 1.18-4.202 2.997v-2.838H15.27v15.945ZM24.734 20.215c0 4.56 3.311 8.291 7.673 8.291 2.292 0 4.202-1.18 5.094-2.455v2.137h3.502V12.243H37.5v2.137c-.892-1.276-2.802-2.456-5.094-2.456-4.362 0-7.673 3.731-7.673 8.291Zm13.053 0c0 2.87-1.91 5.103-4.743 5.103-2.834 0-4.744-2.233-4.744-5.103 0-2.87 1.91-5.102 4.744-5.102 2.833 0 4.743 2.232 4.743 5.102ZM49.122 6.407a2.319 2.319 0 0 0-2.324-2.327c-1.274 0-2.356 1.052-2.356 2.327a2.373 2.373 0 0 0 2.356 2.36c1.305 0 2.324-1.052 2.324-2.36Zm-.573 5.836h-3.502v17.125c0 1.977-.924 2.71-2.484 2.71-.318 0-.636-.032-.86-.064v3.062c.415.063.956.095 1.497.095 2.93 0 5.349-1.722 5.349-5.293V12.243ZM51.147 20.215c0 4.56 3.311 8.291 7.673 8.291 2.292 0 4.203-1.18 5.094-2.455v2.137h3.502V4.27h-3.502V14.38c-.892-1.276-2.802-2.456-5.094-2.456-4.362 0-7.673 3.731-7.673 8.291Zm13.053 0c0 2.87-1.91 5.103-4.743 5.103-2.834 0-4.744-2.233-4.744-5.103 0-2.87 1.91-5.102 4.744-5.102 2.833 0 4.743 2.232 4.743 5.102ZM70.06 20.215c0 4.56 3.31 8.291 7.672 8.291 2.292 0 4.202-1.18 5.094-2.455v2.137h3.502V12.243h-3.502v2.137c-.892-1.276-2.802-2.456-5.094-2.456-4.362 0-7.673 3.731-7.673 8.291Zm13.052 0c0 2.87-1.91 5.103-4.743 5.103-2.834 0-4.744-2.233-4.744-5.103 0-2.87 1.91-5.102 4.743-5.102 2.834 0 4.744 2.232 4.744 5.102ZM95.318 24.488c1.369 2.424 4.393 4.082 8.054 4.082 4.426 0 7.546-2.583 7.546-6.537.031-3.38-1.974-5.39-5.317-6.633l-2.292-.86c-2.324-.862-3.439-1.595-3.439-3.253 0-1.627 1.656-2.615 3.566-2.615 1.751 0 3.152.765 4.298 2.104l2.579-2.519c-1.656-1.977-4.044-3.093-6.845-3.093-4.203 0-7.355 2.423-7.355 6.378 0 3.093 1.752 5.07 5.349 6.377l2.483.893c2.165.797 3.216 1.85 3.216 3.444 0 1.69-1.56 2.806-3.661 2.806-2.197 0-4.075-1.084-5.253-2.901l-2.93 2.327ZM122.505 27.996v-3.125c-.509.192-1.21.319-1.878.319-1.815 0-2.674-.733-2.674-2.71v-7.112h4.552v-3.125h-4.552V7.811h-3.503v4.432h-3.311v3.125h3.311v7.685c0 3.604 2.388 5.294 5.445 5.294 1.082 0 1.91-.128 2.61-.35ZM124.648 21.778c0 4.082 2.261 6.729 5.922 6.729 2.038 0 3.725-.893 4.648-2.488v2.169h3.502V12.243h-3.502v7.845c0 3.412-1.623 5.23-3.884 5.23-2.037 0-3.184-1.563-3.184-4.114v-8.96h-3.502v9.534ZM141.331 20.215c0 4.56 3.311 8.291 7.673 8.291 2.292 0 4.202-1.18 5.094-2.455v2.137h3.502V4.27h-3.502V14.38c-.892-1.276-2.802-2.456-5.094-2.456-4.362 0-7.673 3.731-7.673 8.291Zm13.053 0c0 2.87-1.91 5.103-4.743 5.103-2.834 0-4.744-2.233-4.744-5.103 0-2.87 1.91-5.102 4.744-5.102 2.833 0 4.743 2.232 4.743 5.102ZM165.464 6.407a2.319 2.319 0 0 0-2.324-2.327c-1.273 0-2.356 1.052-2.356 2.327a2.373 2.373 0 0 0 2.356 2.36c1.305 0 2.324-1.052 2.324-2.36Zm-4.075 21.78h3.502V12.244h-3.502v15.945ZM184.178 20.215c0-4.623-3.629-8.29-8.341-8.29s-8.341 3.666-8.341 8.29c0 4.624 3.629 8.291 8.341 8.291s8.341-3.667 8.341-8.29Zm-13.148 0c0-2.838 1.973-5.038 4.807-5.038 2.802 0 4.775 2.2 4.775 5.038s-1.973 5.039-4.775 5.039c-2.834 0-4.807-2.2-4.807-5.039Z" fill="#0A0101"/></svg>